<?xml version="1.0" encoding="UTF-8"?>
<svg id="Calque_2" data-name="Calque 2" xmlns="http://www.w3.org/2000/svg" viewBox="0 0 379.98 534.53">
  <g id="Pg_1" data-name="Pg 1">
    <g>
      <path d="M0,413.55v-254.64h125.98v85.94l-50.74-25.37v-22.2h-25.79v177.9l38.57,18.08v-100.94l-19.13-10.73v-42.49l57.08,28.54v209.54L0,413.55Z"/>
      <path d="M180.88,210.52v79.35l53.12-28.1v54.99l-53.12,28.1v112.33l14.87,15.58,19.13-15.58v-76.46l37.95-25.88v127.82l-57.08,51.87-57.08-51.87V158.34h114.16l-17.99,52.18h-53.96Z"/>
      <path d="M265.51,477.19v-184.01l42.21,25.41v85.33l34.31-16.12-12.78-81.43-63.74-31.77v-116.27h114.48v111.47l-52.44-26.7,2.59-54.87-27.51-6.77,9.36,75.67,68,32.09v124.21l-114.48,63.75Z"/>
      <path d="M372.47,52.2l-71.16,89.98H85.9L14.73,52.19l78.94,19.2,6.09,18.14c4.74,14.09,20.78,21.4,34.47,15.28,8.48-3.8,14.2-11.86,9.93-25.72-2.53-8.24-14.06-26.9-14.06-26.9L193.6,0l63.51,52.2s-11.53,18.65-14.06,26.89c-4.27,13.87,1.45,21.92,9.93,25.72,13.69,6.12,29.73-1.19,34.46-15.28l6.1-18.14,78.93-19.19Z"/>
    </g>
  </g>
</svg>